<?xml version="1.0" encoding="UTF-8" standalone="no"?>
<!-- Created with Inkscape (http://www.inkscape.org/) -->

<svg
   width="204.23256mm"
   height="63.263111mm"
   viewBox="0 0 204.23256 63.263111"
   version="1.1"
   id="svg1"
   xml:space="preserve"
   inkscape:version="1.3 (0e150ed6c4, 2023-07-21)"
   sodipodi:docname="logo.svg"
   inkscape:export-filename="dsgn.png"
   inkscape:export-xdpi="96"
   inkscape:export-ydpi="96"
   xmlns:inkscape="http://www.inkscape.org/namespaces/inkscape"
   xmlns:sodipodi="http://sodipodi.sourceforge.net/DTD/sodipodi-0.dtd"
   xmlns="http://www.w3.org/2000/svg"
   xmlns:svg="http://www.w3.org/2000/svg"><sodipodi:namedview
     id="namedview1"
     pagecolor="#505050"
     bordercolor="#eeeeee"
     borderopacity="1"
     inkscape:showpageshadow="0"
     inkscape:pageopacity="0"
     inkscape:pagecheckerboard="0"
     inkscape:deskcolor="#d1d1d1"
     inkscape:document-units="mm"
     inkscape:zoom="0.71229994"
     inkscape:cx="381.15966"
     inkscape:cy="412.74748"
     inkscape:window-width="1900"
     inkscape:window-height="1042"
     inkscape:window-x="10"
     inkscape:window-y="28"
     inkscape:window-maximized="1"
     inkscape:current-layer="layer1" /><defs
     id="defs1" /><g
     inkscape:label="Livello 1"
     inkscape:groupmode="layer"
     id="layer1"
     transform="translate(124.91889,70.683575)"><path
       style="fill:#000000"
       d="m -70.655417,85.410112 c -0.291041,-0.16503 -0.61664,-0.4293 -0.723552,-0.58726 -0.106913,-0.15796 -0.1957,-2.727981 -0.197305,-5.711161 l -0.0029,-5.423949 0.796381,-1.19063 c 0.438009,-0.65484 1.17183,-2.32172 1.630712,-3.70417 l 0.834332,-2.51354 0.116082,-7.67339 c 0.15918,-10.52232 -0.274137,-13.50239 -2.492731,-17.14338 -1.861519,-3.054987 -1.68618,-3.09677 12.995087,-3.09677 10.291561,0 11.783979,0.05022 11.794484,0.396875 0.0066,0.218281 0.01203,2.06375 0.01203,4.101045 0,2.03729 -0.0054,3.88106 -0.01203,4.09727 -0.01033,0.33757 -1.180128,0.40298 -8.280256,0.46302 l -8.26823,0.0699 v 5.02709 5.02708 l 6.57224,0.13229 c 8.109885,0.16325 7.582969,-0.1493 7.582969,4.49792 0,4.64723 0.526933,4.33467 -7.582947,4.49792 l -6.572262,0.13229 v 4.89479 4.89479 l 12.759025,0.13229 c 12.319299,0.12774 12.776791,0.15053 13.274537,0.66146 0.588613,0.604209 0.626494,0.891299 0.58635,4.443799 -0.02688,2.378801 -0.08264,2.645071 -0.678719,3.241151 l -0.649432,0.64943 -16.482338,-0.008 c -11.786807,-0.006 -16.63309,-0.0935 -17.011507,-0.30812 z m 187.551077,-0.13621 c -1.22856,-0.23016 -1.37687,-0.74614 -1.44461,-5.025721 l -0.0636,-4.020689 1.08403,-1.17603 c 0.59621,-0.64682 1.21146,-1.63498 1.36721,-2.19592 0.18703,-0.67357 0.2837,-6.55807 0.28467,-17.3296 10e-4,-12.80762 0.0725,-16.334955 0.33221,-16.427258 0.58104,-0.206506 18.58214,-0.254109 21.1166,-0.05584 3.39275,0.26541 3.4235,0.304597 3.4235,4.36274 0,3.10274 -0.0185,3.20481 -0.69624,3.83288 l -0.69624,0.64526 -8.63032,0.0697 -8.63032,0.0697 v 4.84712 4.84713 l 6.25915,-0.027 c 6.24642,-0.027 6.26067,-0.0257 6.99865,0.60905 l 0.73948,0.63607 -0.0716,3.26372 c -0.0394,1.79504 -0.12097,3.34365 -0.18135,3.44134 -0.0604,0.0977 -0.49866,0.35538 -0.97395,0.57262 -0.66931,0.30592 -2.17475,0.40716 -6.67639,0.44899 -3.19672,0.0297 -5.90539,0.11159 -6.01927,0.18197 -0.11387,0.0704 -0.20705,2.20826 -0.20705,4.75086 0,3.4688 0.0831,4.65477 0.3327,4.75056 0.18298,0.0702 5.14222,0.16519 11.02053,0.21106 l 10.68783,0.0834 0.48885,0.6037 c 0.41394,0.5112 0.48885,1.084119 0.48885,3.739079 0,3.959001 -0.0792,4.061001 -3.34818,4.312281 -2.37441,0.18251 -25.99682,0.16398 -26.98513,-0.0212 z m -47.938279,-0.80439 c -0.29848,-0.25466 -1.511171,-2.128351 -2.694851,-4.163761 -1.18369,-2.0354 -2.29211,-3.791709 -2.46317,-3.902899 -0.42056,-0.27338 -26.70115,-0.22443 -27.14609,0.0506 -0.19362,0.11967 -1.49775,1.924979 -2.89807,4.011819 -3.02981,4.515201 -3.32294,4.708911 -5.41022,3.575281 -2.49367,-1.354351 -4.27112,-2.884631 -4.3568,-3.750981 -0.0795,-0.80385 0.21496,-1.26206 12.06395,-18.772629 11.89851,-17.58374 12.41846,-18.30356 13.54758,-18.75534 1.37522,-0.55026 2.26009,-0.53175 3.56988,0.0747 1.18969,0.55082 2.13612,1.50853 3.03407,3.07026 0.33468,0.58209 2.04055,3.49912 3.79083,6.4823 1.75028,2.98317 4.75177,8.10286 6.66999,11.37708 1.918211,3.27422 4.714421,8.03672 6.213791,10.58333 3.25128,5.522159 3.43863,5.863199 3.44073,6.263559 0.004,0.66996 -1.36117,1.86623 -3.49587,3.064461 -2.43907,1.36907 -3.04433,1.49311 -3.86575,0.7923 z m -9.757921,-16.1061 c 0.0907,-0.0907 -0.10777,-0.5372 -0.4411,-0.99218 -0.33333,-0.45499 -1.99965,-3.40934 -3.70294,-6.56523 -1.70328,-3.15589 -3.31341,-6.00539 -3.57805,-6.33221 l -0.48118,-0.59422 -1.29455,2.04467 c -3.22684,5.09661 -6.39421,9.95641 -7.18153,11.01884 -0.47294,0.6382 -0.8599,1.25597 -0.8599,1.37282 0,0.24698 17.29294,0.29383 17.53925,0.0475 z m 110.55275,11.313489 c -0.4501,-0.48184 -0.87286,-1.42107 -1.16114,-2.579689 -0.53757,-2.16053 -1.23275,-4.69043 -2.13649,-7.7751 -0.36239,-1.23693 -0.83816,-2.9038 -1.05726,-3.70417 -0.21911,-0.80036 -0.87233,-3.12208 -1.45161,-5.15937 -0.57928,-2.03729 -1.72451,-6.08542 -2.54496,-8.99584 -0.82045,-2.91041 -1.72256,-6.06898 -2.00468,-7.01904 l -0.51297,-1.72738 -1.06622,0.10168 c -0.58643,0.0559 -1.13105,0.20656 -1.21027,0.33475 -0.0792,0.12819 -0.13513,6.48789 -0.12422,14.13267 0.0138,9.67454 -0.069,14.06561 -0.27247,14.44576 -0.48695,0.90986 -1.86336,1.29511 -4.62718,1.29511 -2.45724,0 -2.5683,-0.0259 -3.31579,-0.7734 l -0.7734,-0.7734 V 53.508622 35.537751 l 0.59531,-0.690526 0.59531,-0.690526 8.04713,0.03801 c 7.72462,0.03649 8.07153,0.05986 8.65589,0.583227 0.58826,0.526857 2.41989,6.655596 8.14933,27.268136 0.68763,2.47385 1.41375,5.0337 1.61358,5.68854 0.19984,0.65484 0.44424,1.66688 0.54311,2.24896 0.0989,0.58208 0.29787,1.20716 0.44224,1.38906 0.28919,0.36439 1.99281,0.44284 2.50814,0.1155 0.25301,-0.16072 0.34195,-4.99017 0.39688,-21.55222 l 0.0708,-21.345084 0.57344,-0.573364 c 0.52891,-0.528841 0.81399,-0.569837 3.67129,-0.527941 1.70383,0.02498 3.30849,0.158146 3.56592,0.29592 0.25744,0.137774 0.59965,0.627966 0.76048,1.089315 0.41212,1.182212 0.41212,49.020834 0,50.203043 -0.16083,0.46135 -0.51019,0.95536 -0.77636,1.09781 -0.28499,0.15252 -3.765,0.259 -8.46497,0.259 h -7.98104 z m -281.72138,-2.134319 c -1.06216,-0.0984 -1.81931,-0.32551 -2.18281,-0.65471 -0.55606,-0.50357 -0.55656,-0.52152 -0.55656,-19.92729 0,-12.81567 0.0927,-19.596427 0.27243,-19.932293 0.68602,-1.281843 0.9662,-1.307211 14.32906,-1.297368 6.882887,0.0051 13.348667,0.125827 14.368397,0.268349 5.297127,0.740345 9.213063,3.306671 11.402098,7.472412 1.627171,3.09651 1.690483,3.59398 1.690483,13.28272 0,9.445 -0.07068,10.06657 -1.474072,12.96387 -0.995233,2.05465 -3.940625,5.03527 -6.081825,6.15455 -3.097414,1.61914 -3.480544,1.65743 -17.440944,1.74278 -6.984997,0.0427 -13.431817,0.01 -14.326257,-0.073 z m 22.552067,-9.08131 c 4.16956,-0.0639 4.27873,-0.0802 5.31114,-0.79644 0.57973,-0.40218 1.342963,-1.23562 1.696057,-1.85209 0.641923,-1.12072 0.641987,-1.12165 0.621381,-9.07358 -0.02031,-7.83731 -0.02963,-7.96879 -0.641989,-9.05834 -0.34176,-0.60808 -1.095939,-1.43466 -1.675949,-1.83684 l -1.05458,-0.73125 -9.81281,-0.13229 c -5.397047,-0.0728 -10.055737,-0.0934 -10.352637,-0.0459 -0.53461,0.0855 -0.5394,0.19809 -0.49568,11.64167 0.0243,6.35541 0.0587,11.67435 0.0766,11.81987 0.0306,0.24991 3.39265,0.26333 16.328517,0.0652 z m 70.48773,8.61064 c -1.187523,-0.43665 -1.287457,-0.67451 -3.533924,-8.41126 -0.507047,-1.74625 -1.479509,-5.08 -2.161027,-7.40833 -3.124503,-10.67453 -4.482463,-15.34017 -5.419843,-18.62133 -0.556242,-1.947045 -1.170233,-3.691394 -1.364424,-3.876332 -0.237231,-0.225927 -0.548397,-0.260859 -0.948388,-0.106467 l -0.595312,0.229783 v 13.250326 13.25033 l -0.658925,0.61067 c -0.543539,0.50373 -1.069566,0.64167 -3.003925,0.78769 -1.28975,0.0974 -2.51128,0.12448 -2.714512,0.0603 -0.203233,-0.0642 -0.68861,-0.18643 -1.078616,-0.27156 -1.62561,-0.35485 -1.539856,0.66303 -1.539856,-18.27765 V 30.995935 l 0.69714,-0.54837 c 0.668149,-0.525566 1.009962,-0.54837 8.219478,-0.54837 4.6533,0 7.716484,0.103904 8.031372,0.272426 0.910816,0.487455 1.049191,0.889407 4.096118,11.898411 0.181239,0.65484 1.123859,3.98859 2.094712,7.40833 0.970852,3.41974 2.365827,8.36083 3.099945,10.98021 2.634059,9.39848 2.36598,8.71944 3.479437,8.81337 l 0.973467,0.0821 v -22.12607 c 0,-15.3436 0.08763,-22.289819 0.28588,-22.660247 0.468158,-0.874762 1.7524372,-1.188945 4.7793072,-1.169202 2.381688,0.01553 2.902205,0.09614 3.373438,0.522398 l 0.557208,0.504028 v 25.868953 25.86896 l -0.697139,0.54837 c -0.669291,0.52646 -0.994306,0.54754 -8.1359382,0.52748 -4.091339,-0.0115 -7.617392,-0.0866 -7.835673,-0.16681 z M 105.4248,72.232532 c -0.51634,-0.51634 -0.52917,-0.88195 -0.52917,-15.08125 0,-8.00365 -0.0952,-14.55209 -0.21158,-14.55209 -0.11636,0 -0.84571,0.98227 -1.62076,2.18282 -0.77506,1.20054 -1.79476,2.77812 -2.26602,3.50572 -0.47125,0.72761 -1.273809,1.97777 -1.783449,2.77813 -0.91333,1.43432 -2.15848,3.37692 -4.49411,7.01146 -0.6546,1.01864 -1.45228,2.0852 -1.77262,2.37013 -1.01065,0.89891 -0.85324,1.09224 -7.27166,-8.93103 -2.12434,-3.31745 -4.03787,-6.35355 -4.25229,-6.74687 -0.21442,-0.39333 -0.72059,-1.10596 -1.12483,-1.58362 l -0.73497,-0.86848 0.075,14.17528 0.075,14.17529 -0.80008,0.80007 c -0.57895,0.57895 -1.00106,0.77687 -1.5273,0.71611 -0.78581,-0.0907 -1.05639,-0.48243 -4.8294,-6.99125 l -1.85677,-3.20311 v -13.77607 -13.77606 l 0.69241,-0.822883 0.69241,-0.822883 5.77108,0.07498 c 5.37929,0.06989 5.82175,0.112595 6.51748,0.62909 0.73652,0.546768 1.94358,2.322329 4.56971,6.72193 2.77866,4.655157 3.6568,5.955567 4.07775,6.038667 0.26243,0.0518 0.43332,-0.0886 0.43332,-0.35596 0,-0.24282 1.01031,-2.42444 2.24513,-4.848042 4.2591,-8.359418 3.95538,-8.135768 11.161019,-8.218627 3.01187,-0.03463 5.28496,0.05346 5.72826,0.222005 1.51243,0.575025 1.50309,0.451961 1.50309,19.813974 0,18.25749 -0.045,19.08485 -1.06876,19.63274 -0.26617,0.14244 -1.92053,0.25899 -3.67634,0.25899 -2.83962,0 -3.25087,-0.0585 -3.72156,-0.52916 z M 2.2372942,70.645032 c -0.51964,-0.51964 -0.529166,-0.88195 -0.529166,-20.12573 0,-13.531633 0.08848,-19.761883 0.28588,-20.130734 0.34757,-0.64944 1.722312,-1.246877 2.624536,-1.140573 0.363802,0.04287 7.7213238,0.08786 16.3500478,0.09998 l 15.688588,0.02205 0.64943,0.649432 0.64944,0.649432 v 10.539967 10.539973 l -2.6539,3.94607 c -1.45965,2.17034 -2.84732,4.1598 -3.08372,4.42102 -0.39976,0.44173 -1.16703,0.47494 -10.972142,0.47494 H 10.703961 v 4.64224 c 0,4.57601 -0.0093,4.65149 -0.649432,5.29166 -0.6204982,0.6205 -0.7973132,0.64943 -3.9687498,0.64943 -2.96654,0 -3.375558,-0.0562 -3.848485,-0.52916 z M 28.81997,50.987082 c 0.0705,-0.32047 0.10106,-3.26158 0.068,-6.5358 l -0.0601,-5.953129 -9.061979,-0.06962 -9.06198,-0.06962 v 6.623697 6.6237 l 8.993963,-0.0183 8.993966,-0.0183 z"
       id="path5" /><path
       style="fill:#000000"
       d="m -122.17952,-23.745504 c -1.06216,-0.0984 -1.81931,-0.32551 -2.18281,-0.65471 -0.55606,-0.50357 -0.55656,-0.52152 -0.55656,-19.92729 0,-12.81567 0.0927,-19.59643 0.27243,-19.9323 0.68602,-1.28184 0.9662,-1.30721 14.32906,-1.29736 6.88289,0.005 13.348668,0.12582 14.368398,0.26834 5.297133,0.74035 9.213063,3.30668 11.402103,7.47242 1.62717,3.09651 1.69048,3.59398 1.69048,13.28272 0,9.445 -0.0707,10.06657 -1.47407,12.96387 -0.99524,2.05465 -3.94063,5.03527 -6.08183,6.15455 -3.09741,1.61914 -3.48054,1.65743 -17.440951,1.74278 -6.985,0.0427 -13.43181,0.01 -14.32625,-0.073 z m 22.552068,-9.08131 c 4.16956,-0.0639 4.27873,-0.0802 5.31113,-0.79644 0.579743,-0.40218 1.342973,-1.23562 1.696073,-1.85209 0.64192,-1.12072 0.64198,-1.12165 0.62138,-9.07358 -0.0203,-7.83731 -0.0296,-7.96879 -0.64199,-9.05834 -0.34176,-0.60808 -1.09594,-1.43466 -1.675963,-1.83684 l -1.05457,-0.73125 -9.812808,-0.13229 c -5.39705,-0.0728 -10.05574,-0.0934 -10.35264,-0.0459 -0.53461,0.0855 -0.5394,0.19809 -0.49568,11.64167 0.0243,6.35541 0.0587,11.67435 0.0765,11.81987 0.0306,0.24991 3.39266,0.26333 16.328528,0.0652 z"
       id="path5-6"
       sodipodi:nodetypes="sssccssssssssssssssccsssss" /><path
       style="fill:none;fill-opacity:0.533333;stroke:#000000;stroke-width:8.9;stroke-linecap:round;stroke-linejoin:round;stroke-dasharray:none;stroke-opacity:1;paint-order:fill markers stroke"
       d="m -5.352253,-29.558243 v -29.247525 h 10.08001 l 10.65778,39.775345 h 10.2242 v -47.203152"
       id="path1" /><path
       style="fill:none;fill-opacity:0.533333;stroke:#000000;stroke-width:8.9;stroke-linecap:round;stroke-linejoin:round;stroke-dasharray:none;stroke-opacity:1;paint-order:fill markers stroke"
       d="m -49.618168,-58.577038 h -14.022558 l -11.599594,20.091075 h 16.653991 l 11.257664,19.49885 h -37.820306"
       id="path2" /><path
       style="fill:none;fill-opacity:0.533333;stroke:#000000;stroke-width:8.9;stroke-linecap:round;stroke-linejoin:round;stroke-dasharray:none;stroke-opacity:1;paint-order:fill markers stroke"
       d="m 37.453617,-25.878253 v -33.435903 h 26.8559 v 16.696053 l -3.35374,5.80885 h -23.32004 l 37.22794,9.9752"
       id="path3" /><path
       style="fill:none;fill-opacity:0.533333;stroke:#000000;stroke-width:8.9;stroke-linecap:round;stroke-linejoin:round;stroke-dasharray:none;stroke-opacity:1;paint-order:fill markers stroke"
       d="m -16.123393,-50.946963 h -20.050395 v 39.0765 h 28.343255 l -10.77852,-18.66895 h -6.32971"
       id="path4" /></g></svg>
