<?xml version="1.0" encoding="UTF-8" standalone="no"?>
<!-- Created with Inkscape (http://www.inkscape.org/) -->

<svg
   width="93.789001mm"
   height="104.896mm"
   viewBox="0 0 93.788998 104.896"
   version="1.1"
   id="svg5"
   sodipodi:docname="paper.svg"
   inkscape:version="1.3 (0e150ed6c4, 2023-07-21)"
   inkscape:export-filename="/home/davide/Documenti/freedpm/assets/paper.png"
   inkscape:export-xdpi="96"
   inkscape:export-ydpi="96"
   xmlns:inkscape="http://www.inkscape.org/namespaces/inkscape"
   xmlns:sodipodi="http://sodipodi.sourceforge.net/DTD/sodipodi-0.dtd"
   xmlns="http://www.w3.org/2000/svg"
   xmlns:svg="http://www.w3.org/2000/svg">
  <sodipodi:namedview
     id="namedview7"
     pagecolor="#505050"
     bordercolor="#eeeeee"
     borderopacity="1"
     inkscape:pageshadow="0"
     inkscape:pageopacity="0"
     inkscape:pagecheckerboard="0"
     inkscape:document-units="mm"
     showgrid="false"
     inkscape:zoom="0.9146667"
     inkscape:cx="185.86005"
     inkscape:cy="204.44606"
     inkscape:window-width="946"
     inkscape:window-height="1048"
     inkscape:window-x="965"
     inkscape:window-y="23"
     inkscape:window-maximized="1"
     inkscape:current-layer="layer1"
     height="29.505mm"
     inkscape:showpageshadow="0"
     inkscape:deskcolor="#d1d1d1" />
  <defs
     id="defs2" />
  <g
     inkscape:label="Livello 1"
     inkscape:groupmode="layer"
     id="layer1">
    <g
       id="g10204"
       style="stroke:#482600;stroke-width:0.5;stroke-linejoin:round;stroke-miterlimit:4;stroke-dasharray:none;stroke-opacity:1"
       transform="matrix(3.5557158,0,0,3.5551501,-32.758791,-18.864517)">
      <path
         style="fill:#e8d5b0;fill-opacity:1;stroke:#482600;stroke-width:1.88976;stroke-linecap:butt;stroke-linejoin:round;stroke-miterlimit:4;stroke-dasharray:none;stroke-opacity:1"
         d="m 47.416016,90.443359 1.71875,-0.878906 -1.796875,-1.425781 C 47.45653,76.539566 47.081774,65.704045 46.332031,53.779297 l 2.777344,-0.660156 -2.929687,-1.697266 C 45.898797,47.280411 45.563743,43.117406 45.169922,38.933594 l 3.785156,-2.091797 -4.09375,-1.0625 c -0.188311,-1.868264 -0.396269,-3.744147 -0.607422,-5.621094 -2.746505,0.133382 -5.556505,0.257117 -8.488281,0.365235 0.528415,2.31261 1.03672,4.620842 1.527344,6.923828 l 4.183593,0.609375 -3.533203,2.492187 c 0.848448,4.115758 1.635619,8.216729 2.367188,12.302734 l 3.097656,1.367188 -2.6875,0.958984 c 2.047763,11.771509 3.602943,22.50226 4.751953,34.044922 z"
         transform="scale(0.26458333)"
         id="path4997" />
      <path
         style="fill:#e8d5b0;fill-opacity:1;stroke:#482600;stroke-width:1.88976;stroke-linecap:butt;stroke-linejoin:round;stroke-miterlimit:4;stroke-dasharray:none;stroke-opacity:1"
         d="m 46.865234,105.61523 c 0.270396,-4.97087 0.489725,-9.950331 0.550782,-15.171871 l -1.615235,1.0625 c 0.475006,4.843743 0.799985,9.477651 1.064453,14.109371 z"
         transform="scale(0.26458333)"
         id="path4995" />
      <path
         style="fill:#e8d5b0;fill-opacity:1;stroke:#482600;stroke-width:1.88976;stroke-linecap:butt;stroke-linejoin:round;stroke-miterlimit:4;stroke-dasharray:none;stroke-opacity:1"
         d="m 49.785156,118.29883 0.01758,-0.004 -2.376953,-1.375 c 0.0052,0.11662 0.01038,0.22888 0.01563,0.3457 z"
         transform="scale(0.26458333)"
         id="path4991" />
      <path
         style="fill:#e8d5b0;fill-opacity:1;stroke:#482600;stroke-width:1.88976;stroke-linecap:butt;stroke-linejoin:round;stroke-miterlimit:4;stroke-dasharray:none;stroke-opacity:1"
         d="m 129.02344,100.86523 c 0.1414,2.30515 0.29264,4.58413 0.45703,6.82618 l -1.54492,-0.0527 1.66406,1.68945 c 0.3281,4.34122 0.67811,8.62194 1.02734,12.9043 0.98121,0.017 1.96376,0.0333 2.94141,0.0547 -1.31403,-7.09192 -2.69079,-13.92308 -4.01172,-20.98633 z"
         transform="scale(0.26458333)"
         id="path4983" />
      <path
         style="fill:#e8d5b0;fill-opacity:1;stroke:#482600;stroke-width:1.88976;stroke-linecap:butt;stroke-linejoin:round;stroke-miterlimit:4;stroke-dasharray:none;stroke-opacity:1"
         d="m 128.81641,97.220703 c 0.0443,0.83781 0.0921,1.662499 0.14062,2.488281 l 0.30274,-0.02344 c -0.15011,-0.812724 -0.29505,-1.644963 -0.44336,-2.464844 z"
         transform="scale(0.26458333)"
         id="path4979" />
      <path
         style="fill:#e8d5b0;fill-opacity:1;stroke:#482600;stroke-width:1.88976;stroke-linecap:butt;stroke-linejoin:round;stroke-miterlimit:4;stroke-dasharray:none;stroke-opacity:1"
         d="M 128.24609,94.054688 126.00977,95 l 2.58007,0.966797 c -0.11422,-0.639414 -0.23096,-1.266767 -0.34375,-1.912109 z"
         transform="scale(0.26458333)"
         id="path4975" />
      <path
         style="fill:#e8d5b0;fill-opacity:1;stroke:#482600;stroke-width:1.88976;stroke-linecap:butt;stroke-linejoin:round;stroke-miterlimit:4;stroke-dasharray:none;stroke-opacity:1"
         d="m 122.43945,21 c -19.27678,3.223144 -37.724109,6.559641 -66.507809,8.486328 29.047394,1.625669 48.153109,0.765273 66.550779,-0.271484 -0.0122,-1.034839 -0.0289,-2.04838 -0.0352,-3.107422 l -1.22657,0.101562 1.22266,-1.365234 c -0.005,-1.267533 -0.008,-2.541061 -0.004,-3.84375 z"
         transform="scale(0.26458333)"
         id="path857-9" />
      <path
         style="fill:#ffffce;fill-opacity:1;stroke:#482600;stroke-width:0.5;stroke-linecap:butt;stroke-linejoin:round;stroke-miterlimit:4;stroke-dasharray:none;stroke-opacity:1"
         d="m 11.667943,7.6016042 c 0.07214,0.6234882 0.139059,1.2451376 0.201538,1.865002 l 1.083138,0.28112 -1.001489,0.5534538 c 0.104198,1.106967 0.192848,2.208428 0.267167,3.304191 l 0.775146,0.449068 -0.734839,0.174666 c 0.19837,3.15509 0.297401,6.021787 0.266011,9.090717 l 0.475625,0.377439 -0.455077,0.232596 c -0.02755,2.356256 -0.163431,4.51174 -0.312913,6.822272 l 0.944645,0.546735 -0.997356,0.237196 c -0.07139,1.012598 -0.153449,2.021176 -0.246496,3.025653 9.043134,-1.441346 16.090619,-0.887076 22.805325,0 -0.140636,-1.90315 -0.30527,-3.739504 -0.44855,-5.635315 l -0.440283,-0.447 0.40876,0.01394 c -0.07362,-1.004043 -0.140946,-2.024869 -0.193786,-3.086631 l -0.724503,-0.271291 0.697629,-0.295072 c -0.07449,-1.677682 -0.11172,-3.458575 -0.08785,-5.409489 l -0.344165,-0.129191 0.347782,-0.147278 c 0.02887,-1.905927 0.117575,-3.979065 0.288356,-6.279203 l -1.041796,-0.390157 1.108459,-0.469222 c 0.07968,-0.98102 0.173786,-2.002721 0.284736,-3.0706126 l -0.325562,-0.00878 0.360704,-0.3234947 c 0.0354,-0.3334975 0.07143,-0.6688089 0.110069,-1.0113076 -6.277004,0.3532934 -12.22625,0.7884991 -23.070425,-9e-7 z"
         id="path857-1"
         sodipodi:nodetypes="sccccccccccccccccccccccccccccccss" />
    </g>
  </g>
</svg>
